<?xml version="1.0" encoding="utf-8"?>
<svg id="Modo_de_aislamiento" data-name="Modo de aislamiento" viewBox="0 0 529.18 104.66" xmlns="http://www.w3.org/2000/svg">
  <defs>
    <style>
      .cls-1 {
        fill: #d51317;
      }
    </style>
  </defs>
  <g transform="matrix(1, 0, 0, 1, 0.039156, 1.747119)">
    <g style="" transform="matrix(0.97388, 0, 0, 0.97388, 4.759693, 0.477973)">
      <title>white</title>
      <rect class="cls-1" width="6.86" height="102.77" style="fill: rgb(255, 255, 255);"/>
      <path class="cls-1" d="M 87.56 87.89 C 87.56 92.59 87.56 97.6 93.7 97.6 C 94.95 97.6 96.58 97.44 98.74 97.13 L 98.74 102.14 C 96.76 102.45 94.96 102.77 93.15 102.77 C 82.35 102.77 80.72 97.6 80.72 91.02 L 80.72 86.79 L 80.36 86.79 C 76.04 96.35 63.6 104.66 45.95 104.66 C 28.3 104.66 14.96 98.86 14.96 81.94 C 14.96 63.14 33.7 59.22 49.01 58.13 C 79.64 56.25 80.9 54.53 80.9 41.36 C 80.9 37.75 76.22 25.54 55.13 25.54 C 38.57 25.54 27.57 33.05 26.67 47 L 19.82 47 C 20.72 29.3 33.34 20.36 55.13 20.36 C 71.35 20.36 87.56 24.75 87.56 41.36 L 87.56 87.9 L 87.56 87.89 Z M 80.72 57.02 C 75.32 62.35 60.54 61.72 47.21 63.29 C 30.99 64.86 21.81 69.87 21.81 81.94 C 21.81 91.65 29.92 99.48 46.13 99.48 C 77.3 99.48 80.72 76.3 80.72 72.06 L 80.72 57.02 L 80.72 57.02 Z" style="fill: rgb(255, 255, 255);"/>
      <path class="cls-1" d="M 177.43 103.23 C 168.03 103.23 164.3 96.9 164.13 87.34 L 164.13 72.06 C 163.95 65.58 160.75 61.42 151.17 61.42 L 132.36 61.42 L 132.36 102.77 L 103.96 102.77 L 103.96 0 L 155.43 0 C 180.27 0 191.45 10.49 191.45 25.92 L 191.45 33.18 C 191.45 43.51 185.95 50.15 172.82 52.92 C 186.66 54.62 191.81 62.8 191.81 71.44 L 191.81 86.1 C 191.81 91.5 193.59 95.21 197.32 98.29 L 197.32 103.23 L 177.44 103.23 L 177.43 103.23 Z M 163.41 27.93 C 163.41 22.37 160.22 18.67 151.17 18.67 L 132.36 18.67 L 132.36 46.14 L 150.63 46.14 C 159.33 46.14 163.41 42.74 163.41 36.27 L 163.41 27.94 L 163.41 27.93 Z" style="fill: rgb(255, 255, 255);"/>
      <path class="cls-1" d="M 277.74 104.11 C 266.31 104.11 259.72 100.58 257.59 91.31 C 250.81 99.73 240.36 104.11 227.76 104.11 C 211.88 104.11 200.26 95.86 200.26 81.71 L 200.26 80.87 C 200.26 63.18 221.96 56.45 251.59 55.93 L 251.59 47 C 251.59 40.43 248.3 36.73 240.16 36.73 C 232.61 36.73 227.96 39.76 227.96 46.16 L 227.96 48.68 L 204.91 48.68 L 204.91 46.32 C 204.91 30.99 218.08 20.38 240.74 20.38 C 265.54 20.38 277.15 32.84 277.15 49.69 L 277.15 84.39 C 277.15 87.76 279.48 89.28 284.32 89.28 L 284.32 104.1 L 277.74 104.1 L 277.74 104.11 Z M 251.59 66.71 C 233.96 66.37 225.05 70.25 225.05 78.51 L 225.05 80.54 C 225.05 85.59 229.51 89.29 236.29 89.29 C 244.43 89.29 251.59 84.9 251.59 78.51 L 251.59 66.71 L 251.59 66.71 Z" style="fill: rgb(255, 255, 255);"/>
      <polygon class="cls-1" points="319.78 84.4 359.68 84.4 359.68 102.77 288.59 102.77 288.59 93.33 330.43 39.59 290.53 39.59 290.53 21.91 361.04 21.91 361.04 31.34 319.78 84.4" style="fill: rgb(255, 255, 255);"/>
      <path class="cls-1" d="M 403.07 104.11 C 379.83 104.11 363.56 92.83 363.56 72.11 L 363.56 52.56 C 363.56 32.01 379.83 20.38 403.07 20.38 C 426.31 20.38 442.78 32 442.78 52.56 L 442.78 72.11 C 442.78 92.83 426.32 104.11 403.07 104.11 M 417.21 49.2 C 417.21 41.12 411.98 36.57 403.07 36.57 C 394.16 36.57 388.93 41.12 388.93 49.2 L 388.93 75.32 C 388.93 83.57 394.16 87.95 403.07 87.95 C 411.98 87.95 417.21 83.58 417.21 75.32 L 417.21 49.2 Z" style="fill: rgb(255, 255, 255);"/>
      <polygon class="cls-1" points="407.4 16.83 397.86 16.83 403.69 0.01 420.13 0.01 407.4 16.83" style="fill: rgb(255, 255, 255);"/>
      <path class="cls-1" d="M 503.03 102.77 L 503.03 47.52 C 503.03 40.78 498.76 36.74 491.99 36.74 C 483.08 36.74 476.68 46 476.68 52.75 L 476.68 102.78 L 450.34 102.78 L 450.34 21.91 L 473 21.91 L 474.16 39.09 C 480.56 26.29 491.02 20.39 503.6 20.39 C 520.65 20.39 529.17 30.16 529.17 44.81 L 529.17 102.77 L 503.02 102.77 L 503.03 102.77 Z" style="fill: rgb(255, 255, 255);"/>
    </g>
    <g style="" transform="matrix(0.97388, 0, 0, 0.97388, 2.862932, -0.010686)">
      <title>red</title>
      <rect class="cls-1" width="6.86" height="102.77" style=""/>
      <path class="cls-1" d="M 87.56 87.89 C 87.56 92.59 87.56 97.6 93.7 97.6 C 94.95 97.6 96.58 97.44 98.74 97.13 L 98.74 102.14 C 96.76 102.45 94.96 102.77 93.15 102.77 C 82.35 102.77 80.72 97.6 80.72 91.02 L 80.72 86.79 L 80.36 86.79 C 76.04 96.35 63.6 104.66 45.95 104.66 C 28.3 104.66 14.96 98.86 14.96 81.94 C 14.96 63.14 33.7 59.22 49.01 58.13 C 79.64 56.25 80.9 54.53 80.9 41.36 C 80.9 37.75 76.22 25.54 55.13 25.54 C 38.57 25.54 27.57 33.05 26.67 47 L 19.82 47 C 20.72 29.3 33.34 20.36 55.13 20.36 C 71.35 20.36 87.56 24.75 87.56 41.36 L 87.56 87.9 L 87.56 87.89 Z M 80.72 57.02 C 75.32 62.35 60.54 61.72 47.21 63.29 C 30.99 64.86 21.81 69.87 21.81 81.94 C 21.81 91.65 29.92 99.48 46.13 99.48 C 77.3 99.48 80.72 76.3 80.72 72.06 L 80.72 57.02 L 80.72 57.02 Z"/>
      <path class="cls-1" d="M 177.43 103.23 C 168.03 103.23 164.3 96.9 164.13 87.34 L 164.13 72.06 C 163.95 65.58 160.75 61.42 151.17 61.42 L 132.36 61.42 L 132.36 102.77 L 103.96 102.77 L 103.96 0 L 155.43 0 C 180.27 0 191.45 10.49 191.45 25.92 L 191.45 33.18 C 191.45 43.51 185.95 50.15 172.82 52.92 C 186.66 54.62 191.81 62.8 191.81 71.44 L 191.81 86.1 C 191.81 91.5 193.59 95.21 197.32 98.29 L 197.32 103.23 L 177.44 103.23 L 177.43 103.23 Z M 163.41 27.93 C 163.41 22.37 160.22 18.67 151.17 18.67 L 132.36 18.67 L 132.36 46.14 L 150.63 46.14 C 159.33 46.14 163.41 42.74 163.41 36.27 L 163.41 27.94 L 163.41 27.93 Z"/>
      <path class="cls-1" d="M 277.74 104.11 C 266.31 104.11 259.72 100.58 257.59 91.31 C 250.81 99.73 240.36 104.11 227.76 104.11 C 211.88 104.11 200.26 95.86 200.26 81.71 L 200.26 80.87 C 200.26 63.18 221.96 56.45 251.59 55.93 L 251.59 47 C 251.59 40.43 248.3 36.73 240.16 36.73 C 232.61 36.73 227.96 39.76 227.96 46.16 L 227.96 48.68 L 204.91 48.68 L 204.91 46.32 C 204.91 30.99 218.08 20.38 240.74 20.38 C 265.54 20.38 277.15 32.84 277.15 49.69 L 277.15 84.39 C 277.15 87.76 279.48 89.28 284.32 89.28 L 284.32 104.1 L 277.74 104.1 L 277.74 104.11 Z M 251.59 66.71 C 233.96 66.37 225.05 70.25 225.05 78.51 L 225.05 80.54 C 225.05 85.59 229.51 89.29 236.29 89.29 C 244.43 89.29 251.59 84.9 251.59 78.51 L 251.59 66.71 L 251.59 66.71 Z"/>
      <polygon class="cls-1" points="319.78 84.4 359.68 84.4 359.68 102.77 288.59 102.77 288.59 93.33 330.43 39.59 290.53 39.59 290.53 21.91 361.04 21.91 361.04 31.34 319.78 84.4"/>
      <path class="cls-1" d="M 403.07 104.11 C 379.83 104.11 363.56 92.83 363.56 72.11 L 363.56 52.56 C 363.56 32.01 379.83 20.38 403.07 20.38 C 426.31 20.38 442.78 32 442.78 52.56 L 442.78 72.11 C 442.78 92.83 426.32 104.11 403.07 104.11 M 417.21 49.2 C 417.21 41.12 411.98 36.57 403.07 36.57 C 394.16 36.57 388.93 41.12 388.93 49.2 L 388.93 75.32 C 388.93 83.57 394.16 87.95 403.07 87.95 C 411.98 87.95 417.21 83.58 417.21 75.32 L 417.21 49.2 Z"/>
      <polygon class="cls-1" points="407.4 16.83 397.86 16.83 403.69 0.01 420.13 0.01 407.4 16.83"/>
      <path class="cls-1" d="M 503.03 102.77 L 503.03 47.52 C 503.03 40.78 498.76 36.74 491.99 36.74 C 483.08 36.74 476.68 46 476.68 52.75 L 476.68 102.78 L 450.34 102.78 L 450.34 21.91 L 473 21.91 L 474.16 39.09 C 480.56 26.29 491.02 20.39 503.6 20.39 C 520.65 20.39 529.17 30.16 529.17 44.81 L 529.17 102.77 L 503.02 102.77 L 503.03 102.77 Z"/>
    </g>
  </g>
</svg>