<?xml version="1.0" encoding="utf-8"?>
<svg width="54" height="54" viewBox="0 0 54 54" fill="none" xmlns="http://www.w3.org/2000/svg">
  <g transform="matrix(0.939497, 0, 0, 0.939497, -1.475482, 2.098011)" style="">
    <title>lr-favicon</title>
    <g transform="matrix(1, 0, 0, 1, 1.772168, 0.822917)" style="">
      <rect class="cls-2" x=".96" y=".46" width="3.44" height="50.37" style="fill: rgb(166, 166, 166);">
        <title>sombra</title>
      </rect>
      <rect class="cls-1" width="3.44" height="50.37" style="fill: rgb(213, 19, 23);">
        <title>ele-red</title>
      </rect>
    </g>
    <g transform="matrix(1, 0, 0, 1, 1.772168, 0.822917)" style="">
      <path class="cls-2" d="m47.15,51.06c-4.72,0-6.59-3.1-6.68-7.79v-7.49c-.09-3.18-1.69-5.22-6.5-5.22h-9.44v20.27h-14.24V.46h25.82c12.47,0,18.07,5.14,18.07,12.71v3.56c0,5.07-2.76,8.32-9.35,9.68,6.95.83,9.53,4.84,9.53,9.07v7.19c0,2.65.89,4.46,2.76,5.98v2.42h-9.97Zm-7.04-36.91c0-2.72-1.6-4.54-6.14-4.54h-9.44v13.46h9.17c4.36,0,6.41-1.67,6.41-4.84v-4.08Z" style="fill: rgb(166, 166, 166);"/>
      <path class="cls-1" d="m46.19,50.6c-4.72,0-6.59-3.1-6.67-7.79v-7.49c-.09-3.18-1.69-5.22-6.5-5.22h-9.44v20.27h-14.25V0h25.82c12.46,0,18.07,5.14,18.07,12.7v3.56c0,5.06-2.76,8.32-9.35,9.68,6.94.83,9.52,4.84,9.52,9.08v7.18c0,2.65.89,4.46,2.76,5.98v2.42h-9.97Zm-7.03-36.91c0-2.72-1.6-4.54-6.14-4.54h-9.44v13.46h9.17c4.36,0,6.41-1.66,6.41-4.84v-4.08Z" style="fill: rgb(213, 19, 23);"/>
    </g>
  </g>
</svg>